<svg xmlns="http://www.w3.org/2000/svg" xmlns:xlink="http://www.w3.org/1999/xlink" viewBox="0 0 62.88 98.78">
    <defs>
        <style>
            .cls-1{fill:none}.cls-2{clip-path:url(#clip-path)}.cls-3{fill:url(#linear-gradient)}.cls-4{clip-path:url(#clip-path-2)}.cls-5{fill:url(#linear-gradient-2)}.cls-6{fill:#00839b}.cls-7{clip-path:url(#clip-path-3)}.cls-8{fill:url(#linear-gradient-3)}
        </style>
        <clipPath id="clip-path">
            <path class="cls-1" d="M18.4 89.23A2.76 2.76 0 0 0 21.16 92c12.85 0 19.18.24 22.66 5.54a2.76 2.76 0 0 0 4.61-3c-5.27-8-14.5-8-27.27-8a2.76 2.76 0 0 0-2.76 2.76"/>
        </clipPath>
        <linearGradient id="linear-gradient" x1="1192.13" y1="1269.08" x2="1193.13" y2="1269.08" gradientTransform="matrix(0 -5.96 -5.96 0 7603.13 7209.1)" gradientUnits="userSpaceOnUse">
            <stop offset="0" stop-color="#00839b"/>
            <stop offset="1" stop-color="#1f5369"/>
        </linearGradient>
        <clipPath id="clip-path-2">
            <path class="cls-1" d="M18.4 78.16a2.76 2.76 0 0 0 2.76 2.76c13.15 0 21.13.58 22.1 3.41-.22.54-.94 1.08-3.2 1.5-3.48.66-9 .65-16.58.64h-2.32a2.76 2.76 0 1 0 0 5.52h4.42c6.82 0 11.87-.06 15.5-.74s6.12-2.25 7.18-4.58a6.2 6.2 0 0 0 .6-2.39 6.42 6.42 0 0 0-.49-2.28c-2.5-6.6-14.06-6.6-27.22-6.6a2.76 2.76 0 0 0-2.76 2.76"/>
        </clipPath>
        <linearGradient id="linear-gradient-2" x1="1167.5" y1="1171.19" x2="1168.5" y2="1171.19" gradientTransform="matrix(0 -10.37 -10.37 0 12173.71 12190.7)" xlink:href="#linear-gradient"/>
        <clipPath id="clip-path-3">
            <path class="cls-1" d="M16.91 31.27c-2.22 3.19-2.49 7.55-.75 12.28 1.63 4.45 5.56 9 8.44 11.91a2.74 2.74 0 0 0 3.91-3.84c-3.49-3.55-6.21-7.23-7.21-10-1.1-3-1.07-5.57.1-7.25a4.62 4.62 0 0 1 3.94-1.86A5.07 5.07 0 0 1 29 35a11.68 11.68 0 0 1 2.83-4.44c-1.65-1.81-3.86-3.5-6.45-3.5a10.07 10.07 0 0 0-8.43 4.2"/>
        </clipPath>
        <linearGradient id="linear-gradient-3" x1="1092.87" y1="1093.75" x2="1093.87" y2="1093.75" gradientTransform="matrix(20.57 0 0 -20.57 -22468.42 22542.84)" xlink:href="#linear-gradient"/>
    </defs>
    <title>
        Asset 1
    </title>
    <g id="Layer_2" data-name="Layer 2">
        <g id="Layer_1-2" data-name="Layer 1">
            <g class="cls-2">
                <path class="cls-3" d="M18.4 86.47h30.87v12.31H18.4z"/>
            </g>
            <g class="cls-4">
                <path class="cls-5" d="M18.4 75.4h30.47v16.59H18.4z"/>
            </g>
            <path class="cls-6" d="M31.71 0A31.15 31.15 0 0 0 8.13 51.52a24 24 0 0 1 4 8.66c1.41 5.27 5.18 8.18 10.6 8.18h5.17c3 0 5.5-.58 14.75-14.85a46.81 46.81 0 0 0 4.8-10.38c1.94-6.2.53-10-1-12.06a9.73 9.73 0 0 0-7.85-3.86c-2.43 0-4.88 1.57-6.8 3.36A11.69 11.69 0 0 0 29 35a9 9 0 0 0-.52 3 3.66 3.66 0 0 0 3.09 3.81c1.72 0 3.15-2.13 3.15-3.8a9.83 9.83 0 0 0-.45-2.81 6.58 6.58 0 0 1 4.37-2.47A4.33 4.33 0 0 1 42 34.31c1.12 1.52 1.18 4 .19 7.18a46.59 46.59 0 0 1-4.07 8.88A63.66 63.66 0 0 1 29.5 61.7a3.21 3.21 0 0 1-2.58 1.17h-4.24c-2.88 0-4.51-1.26-5.27-4.09-1.87-7-4.93-10.59-5.14-10.83a25.64 25.64 0 1 1 45.09-16.79 28 28 0 0 1-6.24 17.61c-.89 1-6.47 7.64-6.47 19.76 0 3.42-7.26 6.86-23.48 6.86a2.76 2.76 0 0 0 0 5.52c25.23 0 29-7.75 29-12.38C50.15 58 55 52.72 55.21 52.47l.05-.07a33.23 33.23 0 0 0 7.58-21.21A31.2 31.2 0 0 0 31.71 0"/>
            <g class="cls-7">
                <path class="cls-8" transform="rotate(-38.98 23.105 41.8)" d="M7.08 24.88h32.05v33.85H7.08z"/>
            </g>
        </g>
    </g>
</svg>
